<svg xmlns="http://www.w3.org/2000/svg">
	<symbol id="logo-tvs" viewBox="0 0 300 400">
		<path d="M34.92,92.542c0,0,31.824-44.516,44.221-45.99c8.834-1.051,22.049,22.126,30.955,21.813
			c14.06-0.494,30.15-41.445,44.222-41.445c13.267,0,29.807,33.424,44.221,33.592c6.446,0.076,17.688-21.813,26.533-17.886
			c11.906,5.286,39.798,49.917,39.798,49.917H34.92z"/>
		<path d="M147.351,248.702c0,19.758-16.017,35.776-35.777,35.776c-19.759,0-35.777-16.019-35.777-35.776
			c0-19.762,16.018-35.779,35.777-35.779C131.334,212.923,147.351,228.94,147.351,248.702z"/>
		<path d="M224.288,248.05c0,19.758-16.021,35.776-35.78,35.776c-19.758,0-35.776-16.019-35.776-35.776
			c0-19.763,16.019-35.779,35.776-35.779C208.268,212.271,224.288,228.287,224.288,248.05z"/>
		<rect x="30.048" y="237.54" width="38.757" height="22.32"/>
		<rect x="231.421" y="238.192" width="38.778" height="22.32"/>
		<path d="M79.753,312.767v58.94H60.918v-58.94H38.801v-15.238h63.28v15.238H79.753z"/>
		<path d="M139.542,371.707l-28.783-74.072h20.106l18.941,54.496l18.941-54.496h19.365l-29.101,74.072H139.542z"/>
		<path d="M261.235,305.042l-7.09,14.708c-7.83-4.55-17.671-7.725-23.703-7.725c-4.867,0-8.148,1.798-8.148,5.397
			c0,12.803,39.152,5.502,39.152,32.273c0,14.815-13.12,22.646-29.628,22.646c-12.381,0-25.079-4.655-33.862-11.852l7.302-14.498
			c7.619,6.669,19.047,11.112,26.771,11.112c5.927,0,9.63-2.222,9.63-6.455c0-13.121-39.153-5.29-39.153-31.534
			c0-13.65,11.747-22.327,29.523-22.327C242.718,296.788,253.616,300.067,261.235,305.042z"/>
		<path d="M229.075,231.196l-6.586-29.268c18.07-4.066,20.189-7.84,22.433-11.835
			c6.09-10.845,9.262-44.565,10.065-71.821H44.805c0.81,27.267,3.983,60.994,10.063,71.821c2.244,3.996,4.362,7.77,22.432,11.835
			l-6.585,29.268c-22.673-5.101-34.057-12.26-42.005-26.415c-13.722-24.438-14.164-88.896-14.113-101.569l0.06-14.94h270.474
			l0.061,14.939c0.051,12.673-0.39,77.132-14.111,101.57C263.132,218.937,251.747,226.096,229.075,231.196z"/>
    </symbol>
	<symbol id="logo-cumbre" viewBox="0 0 62 86">
		<path class="u-fill" fill="#757575" d="M9.852,1c3.016,0,5.311,1.243,6.869,3.72c0.387,1.452,0.582,2.725,0.582,3.819
			c0,0.674-0.069,2.979-0.215,6.911c0,2.01,0.364,7.113,1.098,15.291c6.825,0.248,13.475,0.367,19.959,0.367
			c3.75,0,5.628-0.152,5.628-0.476c1.021-11.114,1.971-18.955,2.851-23.521c1.511-2.517,3.752-3.77,6.726-3.77h0.734
			c2.922,0,5.119,1.213,6.576,3.661c0.248,0.493,0.367,0.936,0.367,1.329V8.86c-0.582,4.143-1.533,12.374-2.85,24.695
			c-0.344,1.664-0.881,3.039-1.607,4.14c-1.125,1.531-2.881,2.573-5.265,3.132c-0.688,0.426-4.999,0.764-12.942,1.008
			c-17.06,0-26.467-0.506-28.227-1.538c-2.289-0.668-3.995-1.766-5.116-3.293c-0.731-0.635-1.339-3.218-1.829-7.751
			c-0.536-7.434-0.8-12.037-0.8-13.803c0-0.959,0.073-3.228,0.218-6.802C2.366,7.375,2.247,6.575,2.247,6.254
			c0-2.401,1.872-4.1,5.625-5.096C8.751,1.056,9.406,1,9.852,1"/>
		<path class="u-border" fill="none" stroke="#757575" stroke-miterlimit="10" d="M9.852,1c3.016,0,5.311,1.243,6.869,3.72
			c0.387,1.452,0.582,2.725,0.582,3.819c0,0.674-0.069,2.979-0.215,6.911c0,2.01,0.364,7.113,1.098,15.291
			c6.825,0.248,13.475,0.367,19.959,0.367c3.75,0,5.628-0.152,5.628-0.476c1.021-11.114,1.971-18.955,2.851-23.521
			c1.511-2.517,3.752-3.77,6.726-3.77h0.734c2.922,0,5.119,1.213,6.576,3.661c0.248,0.493,0.367,0.936,0.367,1.329V8.86
			c-0.582,4.143-1.533,12.374-2.85,24.695c-0.344,1.664-0.881,3.039-1.607,4.14c-1.125,1.531-2.881,2.573-5.265,3.132
			c-0.688,0.426-4.999,0.764-12.942,1.008c-17.06,0-26.467-0.506-28.227-1.538c-2.289-0.668-3.995-1.766-5.116-3.293
			c-0.731-0.635-1.339-3.218-1.829-7.751c-0.536-7.434-0.8-12.037-0.8-13.803c0-0.959,0.073-3.228,0.218-6.802
			C2.366,7.375,2.247,6.575,2.247,6.254c0-2.401,1.872-4.1,5.625-5.096C8.751,1.056,9.406,1,9.852,1z"/>
		<path class="topDash-fill" fill="#757575" d="M49.255,50.387c2.969,0,5.239,1.416,6.799,4.242c0.348,0.867,0.516,1.674,0.516,2.414
			c0,2.83-1.688,4.895-5.046,6.201c-1.27,0.693-12.043,1.045-32.314,1.045c-3.026,0.131-6.706,0.416-11.044,0.846
			c-2.973,0-5.268-1.498-6.875-4.5C1.103,59.852,1,59.26,1,58.869v-0.391c0-3.264,2.073-5.424,6.22-6.461
			c4.676-0.697,15.694-1.042,33.042-1.042C42.894,50.975,45.89,50.774,49.255,50.387"/>
		<path class="topDash-border" fill="none" stroke="#757575" stroke-width="0.2" stroke-miterlimit="10" d="M49.255,50.387c2.969,0,5.239,1.416,6.799,4.242
			c0.348,0.867,0.516,1.674,0.516,2.414c0,2.83-1.688,4.895-5.046,6.201c-1.27,0.693-12.043,1.045-32.314,1.045
			c-3.026,0.131-6.706,0.416-11.044,0.846c-2.973,0-5.268-1.498-6.875-4.5C1.103,59.852,1,59.26,1,58.869v-0.391
			c0-3.264,2.073-5.424,6.22-6.461c4.676-0.697,15.694-1.042,33.042-1.042C42.894,50.975,45.89,50.774,49.255,50.387z"/>
		<path class="bottomDash" fill="#FFFFFF" stroke="#FFFFFF" stroke-width="0.2" stroke-miterlimit="10" d="M40.854,69.357
			c2.047,0,3.925,0.979,5.625,2.938c0.83,1.176,1.243,2.436,1.243,3.785c0,2.914-1.849,5.008-5.556,6.264
			c-4.729,0.525-11.746,1.068-21.058,1.637c-5.654,0-9.061-1.006-10.234-3.006c-0.976-1.174-1.461-2.461-1.461-3.85
			c0-3.045,1.855-5.178,5.559-6.398c0.777-0.129,1.316-0.197,1.607-0.197c2.778,0.135,4.289,0.225,4.53,0.264L40.854,69.357z"/>	
	</symbol>
	<symbol id="x" viewBox="0 0 300 281">
		<path d="M0.731,0l115.827,154.87L0,280.789h26.232l102.046-110.242l82.451,110.242H300L177.657,117.206L286.147,0h-26.231l-93.979,101.53L90.002,0H0.731z M39.309,19.323h41.011l181.099,242.14h-41.012L39.309,19.323z"/>
	</symbol>
	<symbol id="facebook" viewBox="0 0 16 31">
		<path d="M16,0.363v4.89h-2.905c-1.064,0-1.777,0.223-2.15,0.667c-0.367,0.445-0.553,1.112-0.553,2v3.501h5.426
			l-0.724,5.479h-4.702v14.06H4.723v-14.06H0V11.42h4.723V7.382c0-2.296,0.642-4.077,1.926-5.343c1.285-1.266,2.995-1.898,5.131-1.898
			C13.595,0.141,15.001,0.215,16,0.363z"/>	
	</symbol>
	<symbol id="instagram" viewBox="0 0 29 28">
		<path d="M27.939,3.687v20.726c0,0.979-0.35,1.821-1.051,2.525c-0.703,0.699-1.545,1.051-2.523,1.051H3.637
			c-0.981,0-1.821-0.352-2.524-1.051c-0.702-0.704-1.052-1.546-1.052-2.525V3.687c0-0.981,0.351-1.821,1.052-2.522
			c0.703-0.702,1.543-1.054,2.524-1.054h20.728c0.979,0,1.82,0.352,2.523,1.054C27.59,1.866,27.939,2.706,27.939,3.687z M24.783,23.67
			V11.91h-2.451c0.242,0.762,0.363,1.555,0.363,2.377c0,1.524-0.389,2.932-1.162,4.218c-0.773,1.289-1.826,2.309-3.158,3.061
			c-1.332,0.751-2.781,1.125-4.356,1.125c-2.384,0-4.423-0.818-6.116-2.459c-1.696-1.642-2.542-3.621-2.542-5.945
			c0-0.822,0.121-1.615,0.363-2.377h-2.56v11.76c0,0.314,0.106,0.579,0.318,0.791c0.211,0.212,0.475,0.317,0.79,0.317h19.401
			c0.305,0,0.564-0.105,0.781-0.317S24.783,23.984,24.783,23.67z M17.986,17.833c1.094-1.059,1.641-2.335,1.641-3.836
			c0-1.5-0.547-2.78-1.641-3.839c-1.096-1.059-2.42-1.588-3.968-1.588c-1.537,0-2.852,0.529-3.948,1.588
			c-1.094,1.059-1.642,2.339-1.642,3.839c0,1.501,0.548,2.778,1.642,3.836c1.096,1.059,2.412,1.588,3.948,1.588
			C15.566,19.421,16.891,18.892,17.986,17.833z M24.783,7.463V4.468c0-0.339-0.121-0.633-0.365-0.88
			c-0.24-0.249-0.537-0.373-0.889-0.373h-3.158c-0.352,0-0.648,0.125-0.889,0.373c-0.242,0.248-0.363,0.542-0.363,0.88v2.995
			c0,0.351,0.121,0.647,0.363,0.889c0.24,0.242,0.537,0.363,0.889,0.363h3.158c0.352,0,0.648-0.121,0.889-0.363
			C24.662,8.11,24.783,7.813,24.783,7.463z"/>	
	</symbol>
	<symbol id="threads" viewBox="0 0 436 506">
		<path d="M338.749 234.521a175.819 175.819 0 0 0-6.636-3.013c-3.905-71.965-43.229-113.165-109.257-113.586-.299-.002-.597-.002-.896-.002-39.494 0-72.339 16.857-92.556 47.533l36.313 24.91c15.103-22.914 38.804-27.798 56.26-27.798.201 0 .403 0 .604.002 21.74.139 38.146 6.46 48.764 18.787 7.728 8.975 12.896 21.376 15.454 37.027-19.275-3.276-40.121-4.284-62.406-3.006-62.777 3.616-103.134 40.229-100.424 91.103 1.375 25.807 14.231 48.007 36.198 62.51 18.573 12.26 42.493 18.256 67.354 16.898 32.831-1.8 58.587-14.326 76.555-37.23 13.646-17.394 22.277-39.935 26.089-68.337 15.646 9.443 27.242 21.869 33.646 36.807 10.89 25.393 11.525 67.119-22.521 101.137-29.83 29.802-65.688 42.693-119.879 43.092-60.112-.445-105.574-19.724-135.132-57.299C58.6 368.869 44.295 318.047 43.762 253c.534-65.048 14.838-115.87 42.517-151.055 29.558-37.575 75.019-56.853 135.131-57.299 60.549.45 106.803 19.82 137.492 57.577 15.048 18.515 26.394 41.8 33.873 68.948l42.554-11.354c-9.065-33.417-23.331-62.213-42.743-86.094C353.241 25.317 295.7.514 221.558 0h-.297C147.271.513 90.374 25.41 52.15 74 18.137 117.24.591 177.405.002 252.822L0 253l.002.178C.591 328.595 18.137 388.761 52.15 432c38.224 48.589 95.121 73.488 169.111 74h.297c65.781-.456 112.149-17.679 150.347-55.842 49.976-49.928 48.471-112.512 31.999-150.931-11.818-27.549-34.347-49.927-65.155-64.706zM225.171 341.305c-27.514 1.55-56.098-10.8-57.507-37.251-1.045-19.613 13.958-41.497 59.195-44.104a264.763 264.763 0 0 1 15.259-.445c16.432 0 31.804 1.597 45.779 4.652-5.211 65.099-35.787 75.669-62.726 77.148z"/>	
	</symbol>
	<symbol id="whatsapp" viewBox="0 0 24 24">
		<path d="m.057 24 1.687-6.163a11.867 11.867 0 0 1-1.587-5.946C.16 5.335 5.495 0 12.05 0a11.817 11.817 0 0 1 8.413 3.488 11.824 11.824 0 0 1 3.48 8.414c-.003 6.557-5.338 11.892-11.893 11.892a11.9 11.9 0 0 1-5.688-1.448L.057 24zm6.597-3.807c1.676.995 3.276 1.591 5.392 1.592 5.448 0 9.886-4.434 9.889-9.885.002-5.462-4.415-9.89-9.881-9.892-5.452 0-9.887 4.434-9.889 9.884-.001 2.225.651 3.891 1.746 5.634l-.999 3.648 3.742-.981zm11.387-5.464c-.074-.124-.272-.198-.57-.347-.297-.149-1.758-.868-2.031-.967-.272-.099-.47-.149-.669.149-.198.297-.768.967-.941 1.165-.173.198-.347.223-.644.074-.297-.149-1.255-.462-2.39-1.475-.883-.788-1.48-1.761-1.653-2.059-.173-.297-.018-.458.13-.606.134-.133.297-.347.446-.521.151-.172.2-.296.3-.495.099-.198.05-.372-.025-.521-.075-.148-.669-1.611-.916-2.206-.242-.579-.487-.501-.669-.51l-.57-.01c-.198 0-.52.074-.792.372s-1.04 1.016-1.04 2.479 1.065 2.876 1.213 3.074c.149.198 2.095 3.2 5.076 4.487.709.306 1.263.489 1.694.626.712.226 1.36.194 1.872.118.571-.085 1.758-.719 2.006-1.413.248-.695.248-1.29.173-1.414z"/>	
	</symbol>
	<symbol id="inscripcion-icon" viewBox="0 0 20 20">
		<path d="M10.977,3.563l5.461,5.459L5.518,19.941H0.059v-5.459L10.977,3.563z M4.822,18.262l1.194-1.193
			l-3.084-3.084l-1.194,1.193v1.404h1.681v1.68H4.822z M11.687,6.082c0-0.192-0.097-0.289-0.289-0.289
			c-0.087,0-0.162,0.032-0.223,0.092L4.062,13C4,13.061,3.97,13.135,3.97,13.223c0,0.193,0.096,0.289,0.289,0.289
			c0.087,0,0.162-0.031,0.223-0.094l7.113-7.113C11.655,6.244,11.687,6.17,11.687,6.082z M19.941,4.823
			c0,0.463-0.161,0.857-0.486,1.181l-2.179,2.178l-5.459-5.459l2.179-2.166c0.314-0.332,0.708-0.499,1.182-0.499
			c0.463,0,0.862,0.167,1.191,0.499l3.086,3.072C19.78,3.969,19.941,4.367,19.941,4.823z"/>
	</symbol>
	<symbol id="roadbook-icon" viewBox="0 0 26 25">
		<path d="M23.199,6.27c1.108,1.898,1.663,3.97,1.663,6.217c0,2.247-0.555,4.319-1.663,6.218c-1.107,1.897-2.61,3.398-4.509,4.507
			c-1.895,1.106-3.969,1.661-6.214,1.661c-2.248,0-4.32-0.555-6.217-1.661c-1.898-1.108-3.401-2.609-4.508-4.507
			c-1.108-1.898-1.662-3.971-1.662-6.218c0-2.248,0.554-4.319,1.662-6.217c1.106-1.898,2.609-3.4,4.508-4.508
			c1.897-1.108,3.97-1.662,6.217-1.662c2.246,0,4.32,0.554,6.214,1.662C20.589,2.87,22.092,4.372,23.199,6.27z M20.071,16.89
			c0.785-1.344,1.179-2.812,1.179-4.402c0-1.591-0.394-3.059-1.179-4.403c-0.785-1.344-1.85-2.409-3.192-3.194
			c-1.345-0.784-2.813-1.177-4.403-1.177c-1.592,0-3.06,0.393-4.403,1.177c-1.344,0.786-2.41,1.85-3.194,3.194
			c-0.784,1.344-1.177,2.812-1.177,4.403c0,1.591,0.393,3.059,1.177,4.402c0.785,1.344,1.85,2.409,3.194,3.192
			c1.343,0.786,2.811,1.179,4.403,1.179c1.59,0,3.058-0.393,4.403-1.179C18.222,19.299,19.286,18.233,20.071,16.89z M16.604,6.052
			v8.742l-8.256,4.128v-8.741L16.604,6.052z M10.411,15.584l4.129-2.064l-4.129-2.065V15.584z"/>		
	</symbol>
	<symbol id="patrimonioIndustrial-icon" viewBox="0 0 25 25">
		<path d="M6.121,0.089c0.233,0,0.435,0.085,0.605,0.255c0.171,0.171,0.256,0.373,0.256,0.606v11.995l7.217-5.775
			c0.151-0.126,0.331-0.188,0.537-0.188c0.234,0,0.436,0.085,0.606,0.255c0.171,0.171,0.256,0.374,0.256,0.606v5.103l7.217-5.775
			c0.152-0.126,0.331-0.188,0.537-0.188c0.234,0,0.438,0.085,0.606,0.255c0.17,0.171,0.256,0.374,0.256,0.606v15.511
			c0,0.23-0.086,0.432-0.256,0.604c-0.169,0.17-0.372,0.256-0.606,0.256H0.951c-0.233,0-0.436-0.086-0.605-0.256
			c-0.171-0.173-0.256-0.374-0.256-0.604V0.951c0-0.233,0.085-0.436,0.256-0.606c0.17-0.17,0.372-0.255,0.605-0.255H6.121z"/>		
	</symbol>
	<symbol id="patrimonioNatural-icon" viewBox="0 0 21 25">
		<path d="M20.384,20.387c0,0.239-0.086,0.446-0.261,0.619c-0.175,0.175-0.382,0.262-0.621,0.262h-6.36
			c0.01,0.155,0.036,0.558,0.083,1.205c0.045,0.647,0.067,1.145,0.067,1.494c0,0.229-0.082,0.424-0.247,0.585
			c-0.166,0.16-0.363,0.241-0.592,0.241H8.046c-0.229,0-0.427-0.081-0.591-0.241c-0.166-0.161-0.249-0.355-0.249-0.585
			c0-0.35,0.022-0.847,0.069-1.494s0.073-1.05,0.083-1.205H0.998c-0.239,0-0.445-0.087-0.621-0.262
			c-0.173-0.173-0.261-0.38-0.261-0.619c0-0.238,0.087-0.445,0.261-0.62l5.537-5.548H2.76c-0.238,0-0.445-0.086-0.62-0.261
			c-0.175-0.175-0.262-0.382-0.262-0.619c0-0.239,0.087-0.446,0.262-0.621L7.676,7.17H4.962c-0.238,0-0.444-0.087-0.62-0.262
			c-0.175-0.175-0.261-0.381-0.261-0.62c0-0.238,0.086-0.444,0.261-0.62l5.287-5.288c0.176-0.173,0.381-0.261,0.621-0.261
			c0.238,0,0.445,0.087,0.62,0.261l5.288,5.288c0.175,0.175,0.261,0.381,0.261,0.62c0,0.239-0.086,0.445-0.261,0.62
			s-0.381,0.262-0.62,0.262h-2.713l5.536,5.547c0.174,0.175,0.261,0.382,0.261,0.621c0,0.237-0.087,0.444-0.261,0.619
			c-0.175,0.175-0.382,0.261-0.621,0.261h-3.15l5.534,5.548C20.298,19.941,20.384,20.148,20.384,20.387z"/>		
	</symbol>
	<symbol id="recorrido-icon" viewBox="0 0 25 25">
		<path d="M21.503,10.554c0.236,0,0.441,0.087,0.614,0.26s0.259,0.377,0.259,0.613v3.493c0,0.236-0.086,0.44-0.259,0.613
			s-0.378,0.26-0.614,0.26H3.167c-0.364,0-0.673-0.128-0.927-0.382l-1.924-1.924c-0.091-0.091-0.136-0.195-0.136-0.313
			s0.045-0.224,0.136-0.314l1.924-1.924c0.254-0.254,0.563-0.382,0.927-0.382h6.985V7.935h3.493v2.619H21.503z M23.481,4.128
			c0.091,0.091,0.137,0.196,0.137,0.314s-0.046,0.223-0.137,0.314L21.558,6.68c-0.255,0.255-0.563,0.382-0.928,0.382H2.294
			c-0.236,0-0.441-0.086-0.614-0.259C1.508,6.63,1.421,6.425,1.421,6.188V2.696c0-0.236,0.086-0.441,0.259-0.614
			C1.854,1.91,2.058,1.823,2.294,1.823h7.858V0.95c0-0.237,0.086-0.441,0.259-0.614c0.173-0.172,0.377-0.259,0.614-0.259h1.747
			c0.237,0,0.441,0.087,0.614,0.259c0.173,0.173,0.26,0.377,0.26,0.614v0.873h6.984c0.364,0,0.673,0.127,0.928,0.382L23.481,4.128z
			 M10.152,16.666h3.493v6.984c0,0.236-0.087,0.441-0.26,0.614s-0.377,0.259-0.614,0.259h-1.747c-0.236,0-0.441-0.086-0.614-0.259
			s-0.259-0.378-0.259-0.614V16.666z"/>		
	</symbol>
	<symbol id="email" viewBox="0 0 30 24">
		<path d="M29.489,3.2v17.599c0,0.713-0.253,1.322-0.76,1.828c-0.509,0.508-1.116,0.762-1.828,0.762H3.088
			c-0.712,0-1.322-0.254-1.828-0.762c-0.507-0.506-0.76-1.115-0.76-1.828V3.2c0-0.712,0.253-1.321,0.76-1.828
			c0.506-0.507,1.116-0.76,1.828-0.76h23.813c0.712,0,1.319,0.253,1.828,0.76C29.236,1.878,29.489,2.488,29.489,3.2z M27.419,3.798
			c0-0.022,0-0.081,0-0.178s0-0.17,0-0.218s-0.002-0.119-0.009-0.21c-0.006-0.091-0.022-0.159-0.049-0.202
			c-0.025-0.043-0.056-0.091-0.088-0.146c-0.033-0.054-0.081-0.095-0.146-0.121c-0.063-0.027-0.139-0.041-0.226-0.041H3.088
			c-0.141,0-0.262,0.051-0.364,0.154C2.622,2.938,2.571,3.06,2.571,3.2c0,1.812,0.792,3.343,2.378,4.594
			c2.082,1.64,4.244,3.348,6.487,5.127c0.064,0.054,0.253,0.213,0.566,0.477c0.313,0.265,0.56,0.467,0.744,0.607
			c0.183,0.141,0.422,0.311,0.72,0.51c0.296,0.2,0.568,0.349,0.817,0.445c0.248,0.097,0.479,0.146,0.695,0.146h0.015h0.016
			c0.216,0,0.448-0.049,0.696-0.146c0.249-0.097,0.52-0.246,0.818-0.445c0.296-0.199,0.535-0.369,0.72-0.51
			c0.185-0.14,0.431-0.342,0.744-0.607c0.313-0.264,0.501-0.423,0.566-0.477c2.242-1.779,4.406-3.488,6.487-5.127
			c0.582-0.464,1.124-1.086,1.625-1.868C27.168,5.144,27.419,4.435,27.419,3.798z M27.419,20.799V8.376
			c-0.347,0.388-0.718,0.744-1.116,1.068c-2.89,2.221-5.188,4.043-6.892,5.467c-0.55,0.464-0.997,0.825-1.343,1.084
			c-0.346,0.259-0.811,0.521-1.399,0.783c-0.589,0.266-1.142,0.396-1.659,0.396h-0.016h-0.015c-0.518,0-1.071-0.131-1.658-0.396
			c-0.588-0.263-1.054-0.524-1.399-0.783c-0.345-0.26-0.793-0.621-1.343-1.084c-1.704-1.424-4-3.246-6.891-5.467
			c-0.399-0.324-0.771-0.68-1.116-1.068v12.422c0,0.141,0.051,0.262,0.154,0.365c0.102,0.104,0.223,0.152,0.364,0.152h23.813
			c0.14,0,0.261-0.049,0.363-0.152C27.368,21.061,27.419,20.939,27.419,20.799z"/>		
	</symbol>
	<symbol id="marker" viewBox="0 0 17 25">
		<path d="M16.531,8.133c0,1.141-0.17,2.076-0.516,2.809l-5.711,12.142c-0.168,0.344-0.416,0.616-0.746,0.815
			c-0.329,0.198-0.682,0.297-1.058,0.297s-0.729-0.099-1.06-0.297c-0.329-0.199-0.573-0.472-0.729-0.815L0.986,10.941
			c-0.345-0.732-0.518-1.668-0.518-2.809c0-2.217,0.784-4.11,2.353-5.679c1.569-1.568,3.462-2.353,5.68-2.353
			c2.217,0,4.11,0.785,5.679,2.353C15.748,4.023,16.531,5.916,16.531,8.133z M11.34,10.972c0.785-0.784,1.178-1.73,1.178-2.839
			c0-1.108-0.393-2.055-1.178-2.839c-0.784-0.785-1.73-1.177-2.839-1.177c-1.109,0-2.056,0.393-2.84,1.177
			c-0.784,0.784-1.177,1.73-1.177,2.839c0,1.109,0.393,2.056,1.177,2.839c0.784,0.785,1.73,1.177,2.84,1.177
			C9.609,12.149,10.556,11.757,11.34,10.972z"/>		
	</symbol>
	<symbol id="homologacion" viewBox="0 0 490 137">
		<g fill="#AAA" fill-rule="evenodd" clip-rule="evenodd"><path d="M52.042 54.581c-1.889 0-3.098.833-3.625 2.5-.278.805-.417 2.68-.417 5.624s.139 4.819.417 5.625c.528 1.667 1.736 2.499 3.625 2.499s3.096-.833 3.624-2.499c.278-.806.417-2.681.417-5.625s-.139-4.819-.417-5.625c-.527-1.666-1.735-2.499-3.624-2.499zM110.373 54.581c-1.889 0-3.097.833-3.625 2.5-.278.806-.417 2.68-.417 5.625s.139 4.819.417 5.625c.528 1.667 1.736 2.499 3.625 2.499s3.097-.833 3.625-2.499c.278-.806.417-2.681.417-5.625s-.139-4.819-.417-5.625c-.528-1.667-1.736-2.5-3.625-2.5zM152.663 21.216h-.126l-2.749 10.103h5.5zM123.248 24.248h2.958c2.25 0 3.375-.581 3.375-2.525 0-1.945-1.125-2.526-3.375-2.526h-2.958c-.167 0 .01-.353.01-.187v5.333c0 .166-.177-.095-.01-.095zM50.792 25.258c1.028 0 1.84-.187 2.437-.727.598-.544.896-1.23.896-2.147 0-.917-.299-1.739-.896-2.281-.597-.541-1.409-.907-2.437-.907h-3.26c-.166 0-.047.313-.047.481v5.499c-.001.166 3.307.082 3.307.082zM158.622 54.581c-1.889 0-3.098.833-3.625 2.5-.278.806-.417 2.68-.417 5.625s.14 4.819.417 5.625c.527 1.667 1.736 2.499 3.625 2.499 1.888 0 3.096-.833 3.624-2.499.277-.806.417-2.681.417-5.625s-.14-4.819-.417-5.625c-.528-1.667-1.737-2.5-3.624-2.5zM123.248 36.371h3.332c2.306 0 3.459-1.251 3.459-3.389 0-1-.292-1.531-.875-2.086-.583-.556-1.444-.586-2.584-.586h-3.332c-.167 0 0-.167 0 0l.01 5.45c0 .166-.177.611-.01.611zM21.376 25.258h3.75c1.139 0 2.021.021 2.646-.563.625-.583.938-1.217.938-2.218 0-1-.313-1.82-.938-2.391-.625-.569-1.507-.891-2.646-.891h-3.75c-.167 0-.16.313-.16.481l-.006 5.581c0 .167 0 .001.166.001zM239.68 55.928c-.736-.417-1.757-.361-3.063-.361h-2.208c-.167 0-.681-.016-1.028-.031v14.585c0 .167.861.601 1.028.601h2.208a6.149 6.149 0 0 0 3.063-.8c.735-.417 1.27-1.198 1.603-2.171.277-.916.417-2.614.417-5.001 0-2.39-.14-3.932-.417-4.848-.333-.973-.867-1.559-1.603-1.974zM210.494 57.587l-2.751 9.093h5.5l-2.625-9.093zM263.574 57.587l-2.75 9.093h5.5l-2.625-9.093z"/><path d="M0 0v90.928h279.791L330.268 0H0zm115.175 13.634c0-.277.628-.5.905-.5h11.542c3.083 0 5.396.716 6.938 2.063 1.542 1.347 2.286 3.209 2.286 5.541 0 2.834-1.464 4.882-3.485 6.104v.083a6.341 6.341 0 0 1 2.838 2.374c.764 1.168 1.159 2.529 1.159 4.084 0 2.695-.869 4.665-2.619 6.04-1.749 1.375-4.159 1.999-7.242 1.999H116.08c-.277 0-.905-.011-.905-.29V13.634zm-22.227 0c0-.277-.353-.5-.075-.5h18.542c.277 0 .729.223.729.5v5.375c0 .277-.452.187-.729.187H100.04c-.167 0-1.03.313-1.03.481v4.292c0 .166.863.279 1.03.279h9.333c.277 0 .75.109.75.387v5.25c0 .277-.473.424-.75.424h-9.333c-.167 0-1.03.075-1.03.242v4.541c0 .167.863.269 1.03.269h11.375c.277 0 .729.12.729.398v5.374c0 .278-.452.29-.729.29H92.873c-.277 0 .075-.011.075-.29V13.634zm-78.803 0c0-.277-.212-.5.066-.5h11.333c3.36 0 5.951.904 7.77 2.626 1.82 1.721 2.729 4.02 2.729 6.854 0 2.805-.917 5.212-2.75 6.961-1.833 1.751-4.417 2.755-7.75 2.755h-4.167c-.167 0-.16-.154-.16.012v8.791c0 .278-.229.29-.506.29h-6.5c-.278 0-.066-.011-.066-.29V13.634zm22.226 62.82c0 .278.158.33-.12.33h-6.5c-.278 0-.453-.051-.453-.33V65.996c0-.167-.048.684-.214.684h-7.708c-.167 0-.16-.851-.16-.684v10.458c0 .278-.229.33-.506.33h-6.5c-.278 0-.066-.051-.066-.33V48.956c0-.278-.212-.461.066-.461h6.5c.277 0 .506.183.506.461v10.042c0 .166-.006-.399.16-.399h7.708c.166 0 .214.565.214.399V48.956c0-.278.175-.461.453-.461h6.5c.278 0 .12.183.12.461v27.498zm3.031-35.321V13.634c0-.277.029-.5.308-.5h11.54c3.194 0 5.694.882 7.5 2.563 1.805 1.68 2.708 3.903 2.708 6.625 0 1.778-.402 3.364-1.208 4.739-.806 1.374-1.958 2.442-3.458 3.192L62 41.047c.055.111.055.16 0 .271-.056.113-.154.105-.292.105H54.5c-.306 0-.514-.148-.625-.427l-4.292-9.677H47.61c-.167 0-.126.232-.126.398v9.416c0 .278-.998.29-1.275.29h-6.5c-.278 0-.307-.011-.307-.29zm23.265 29.28c-.722 2.249-2.028 3.972-3.917 5.166-1.889 1.195-4.125 1.793-6.708 1.793s-4.82-.598-6.708-1.793c-1.889-1.194-3.194-2.917-3.917-5.166-.556-1.806-.833-4.375-.833-7.708s.278-5.902.833-7.708c.723-2.25 2.028-3.972 3.917-5.167 1.889-1.194 4.125-1.791 6.708-1.791s4.818.597 6.708 1.791c1.889 1.195 3.194 2.917 3.917 5.167.556 1.695.833 4.264.833 7.708 0 3.443-.278 6.013-.833 7.708zm1.993-56.779c0-.277.896-.5 1.174-.5h6.499c.278 0 .41.223.41.5V31.05c0 1.389.364 2.479 1.087 3.271.723.792 1.683 1.188 2.877 1.188 1.222 0 2.281-.39 2.975-1.167s1.143-1.875 1.143-3.292V13.634c0-.277-.062-.5.216-.5h6.5c.277 0 .356.223.356.5v16.958c0 3.695-.984 6.528-3.011 8.5-2.027 1.972-4.749 2.959-8.193 2.959-3.5 0-6.628-.987-8.641-2.959-2.014-1.972-3.392-4.805-3.392-8.5V13.634zm30.309 62.82c0 .278-.11.33-.387.33H88.79c-.278 0 .117-.051.117-.33V61.629h-.742l-4.541 10.578c-.167.361-.43.536-.792.536h-3.25c-.305 0-.569-.175-.792-.536l-4.54-10.578h-.497v14.825c0 .278.15.33-.128.33h-5.791c-.278 0-.143-.051-.143-.33V48.956c0-.278-.136-.461.143-.461H74c.362 0 .598.113.708.391L81.25 63.65h.167l6.375-14.764c.111-.278.347-.391.708-.391h6.083c.277 0 .387.183.387.461v27.498zm26.029-6.041c-.723 2.249-2.029 3.972-3.917 5.166-1.889 1.195-4.125 1.793-6.708 1.793s-4.819-.598-6.708-1.793c-1.889-1.194-3.194-2.917-3.916-5.166-.556-1.806-.834-4.375-.834-7.708s.278-5.902.834-7.708c.722-2.25 2.027-3.972 3.916-5.167 1.889-1.194 4.125-1.791 6.708-1.791s4.819.597 6.708 1.791c1.887 1.195 3.194 2.917 3.917 5.167.555 1.695.833 4.264.833 7.708 0 3.443-.278 6.013-.833 7.708zm24.486 6.041c0 .278.124.33-.155.33h-19.166c-.278 0 .125-.051.125-.33V48.956c0-.278-.402-.461-.125-.461h6.499c.278 0 .698.183.698.461v21.166c0 .167-.197.601-.03.601h11.999c.278 0 .155-.211.155.066v5.665zm.554-35.031h-6.833c-.278 0-.375-.075-.291-.354l9.791-27.509c.083-.277.264-.426.541-.426h6.792c.277 0 .458.182.541.459l9.583 27.456c.083.279-.014.375-.292.375h-6.874c-.278 0-.459-.269-.543-.548l-1.333-4.504h-9.208l-1.334 4.504c-.082.278-.262.547-.54.547zm23.207 28.99c-.721 2.249-2.027 3.972-3.917 5.166-1.889 1.195-4.124 1.793-6.707 1.793-2.584 0-4.82-.598-6.709-1.793-1.889-1.194-3.193-2.917-3.917-5.166-.556-1.806-.833-4.375-.833-7.708s.277-5.902.833-7.708c.723-2.25 2.027-3.972 3.917-5.167 1.889-1.194 4.125-1.791 6.709-1.791 2.583 0 4.818.597 6.707 1.791 1.889 1.195 3.195 2.917 3.917 5.167.555 1.695.833 4.264.833 7.708 0 3.443-.278 6.013-.833 7.708zM196 63.538c0 2.889-.128 5.084-.628 6.583-.75 2.334-2.001 4.125-3.875 5.375-1.875 1.25-4.088 1.875-6.698 1.875-2.584 0-4.811-.598-6.713-1.793-1.903-1.194-3.208-2.917-3.932-5.166-.555-1.806-.828-4.375-.828-7.708s.279-5.902.835-7.708c.723-2.25 2.036-3.972 3.938-5.167 1.903-1.194 4.146-1.791 6.73-1.791 2.527 0 4.673.542 6.437 1.625 1.763 1.083 3.049 2.555 3.854 4.417.139.306.07.527-.208.667l-5.416 2.292c-.278.139-.486.083-.625-.167-.945-1.527-2.292-2.292-4.042-2.292-1.917 0-3.139.833-3.667 2.5-.277.833-.417 2.708-.417 5.625 0 2.833.139 4.708.417 5.625.583 1.667 1.875 2.499 3.875 2.499 2.027 0 3.278-.749 3.75-2.249.167-.5.25-1.02.25-1.741 0-.167-.083-.159-.25-.159h-2.842c-.047-.323-.047-.323-.047-.601v-4.708c0-.278-.011-.375-.063-.753h9.993c.278 0 .173.476.173.753v2.167zm27.826 13.246h-6.875c-.278 0-.458.236-.542-.042l-1.333-4h-9.209l-1.333 4c-.083.277-.264.042-.542.042h-6.833c-.277 0-.375-.094-.292-.374l9.792-27.499c.083-.277.264-.417.542-.417h6.791c.279 0 .459.161.542.439l9.583 27.466c.085.278-.013.385-.291.385zm24.458-6.413c-1.39 4.304-4.751 6.413-10.083 6.413h-10.958c-.278 0-.934-.051-.934-.33V48.956c0-.278.656-.461.934-.461h10.958c5.332 0 8.693 2.175 10.083 6.48.555 1.75.832 4.309.832 7.697 0 3.39-.277 5.949-.832 7.699zm28.622 6.413h-6.872c-.279 0-.459.236-.543-.042l-1.334-4h-9.208l-1.333 4c-.083.277-.264.042-.542.042h-6.832c-.278 0-.375-.094-.292-.374l9.791-27.499c.084-.277.265-.417.542-.417h6.791c.277 0 .458.161.542.439l9.582 27.466c.084.278-.014.385-.292.385z"/></g><g fill="#EEE" fill-rule="evenodd" clip-rule="evenodd"><path d="M159.727 107.093c0-3.814-2.502-6.062-6.046-6.062h-8.197v12.123h8.197c3.544 0 6.046-2.249 6.046-6.061z"/><path d="M6.062 90.928v45.464h238.424l25.787-45.464H6.062zm28.223 29.657c.511.677 1.454.919 2.71.919 2.278 0 3.142-1.277 3.574-3.298h6.992c-1.021 7.072-5.303 9.501-10.605 9.501-3.26 0-5.734-.976-7.776-3.044-2.946-2.983-2.828-6.89-2.828-11.146 0-4.255-.119-8.198 2.828-11.181 2.042-2.066 4.517-2.814 7.776-2.814 5.303 0 9.584 2.519 10.605 9.591h-6.992c-.432-2.021-1.296-3.372-3.574-3.372-1.256 0-2.199.344-2.71 1.021-.628.835-1.061 1.742-1.061 6.912s.433 6.076 1.061 6.911zm26.9 7.725-2.935-7.219-2.935 7.219h-6.633l6.104-15.008-5.681-14.291h6.602l2.542 6.501 2.542-6.501h6.602l-5.681 14.291 6.103 15.008h-6.63zm36.815 0h-6.062v-14.127l-4.727 6.044h-4.55l-3.856-6.044v14.127h-7.072V99.011h6.704l6.5 12.486 6.5-12.486H98v29.299zm36.371-27.279h-8.083v26.268h-2.021v-26.268h-9.093v-1.011h19.196v1.011zm25.318 26.268-6.548-13.134h-7.657v13.134h-2.021v-27.278h10.486c4.469 0 7.857 2.508 7.857 7.283 0 4.12-2.464 6.703-6.317 7.358l6.626 12.637h-2.426zm29.119 0-2.388-7.072h-12.787l-2.389 7.072h-2.233l10.091-27.278h1.848l10.091 27.278h-2.233zm13.254 0h-2.021v-27.278h2.021v27.278zm28.289 0h-16.165v-27.278h1.01v25.258h15.155v2.02z"/><path d="M174.287 118.206h11.478l-5.739-16.14z"/></g><g fill="#EEE" fill-rule="evenodd" clip-rule="evenodd"><path d="M404.357 108.104h-4.275v5.051h4.275c1.755 0 2.779-1.164 2.779-2.525s-1.024-2.526-2.779-2.526z"/><path d="m426.913 33.3-31.308 52.51L344.958.14l-77.509 136.252H490L426.913 33.3zm-88.46 74.804H326.33v5.051h10.103v5.052H326.33v11.113h-6.063v-27.278h18.186v6.062zm21.217 0h-10.103v4.041h9.093v6.062h-9.093v5.052h10.103v6.062h-17.175v-27.278h17.175v6.061zm-3.661-33.324-10.13-18.417-12.892 20.258-5.524-6.446-14.733 12.893 33.149-56.172 32.845 58.013-18.11-13.812-4.605 3.683zm32.96 54.539h-7.072v-13.197l-2.922 7.136h-4.096l-3.085-7.136v13.197h-7.072v-27.278h6.354l5.851 11.56 5.854-11.56h6.189v27.278zm15.68-10.102h-4.567v10.103h-6.062v-27.278h10.629c5.779 0 8.888 4.281 8.888 8.588s-3.108 8.587-8.888 8.587zm25.354 10.102-1.206-4.041h-8.009l-1.281 4.041h-6.692l9.473-27.278h4.938l9.474 27.278h-6.697zm4.584-40.232-7.583-13.791-9.655 15.17-4.137-4.826-11.033 9.653 24.825-42.063 24.595 43.442-13.563-10.344-3.449 2.759z"/><path d="M422.58 119.217h4.534l-2.194-6.993z"/></g>	
	</symbol>
	<symbol id="langreocalidadturistica" viewBox="0 0 400 400">
		<path d="M130.626,320.451v15.271c0,4.173-0.029,8.347,0.021,12.521c0.008,0.877-0.236,1.097-1.095,1.085 	c-4.078-0.043-8.16-0.051-12.241,0.004c-0.959,0.016-1.139-0.31-1.139-1.192c0.021-16.789,0.027-33.578-0.006-50.368 	c-0.002-1.013,0.287-1.235,1.252-1.222c3.751,0.058,7.505,0.047,11.256,0.004c0.83-0.008,1.347,0.233,1.867,0.905 	c6.733,8.716,13.5,17.402,20.26,26.096c0.137,0.178,0.278,0.348,0.647,0.82v-1.77c0-8.254,0.026-16.507-0.027-24.762 	c-0.005-1.077,0.286-1.313,1.32-1.296c4.034,0.065,8.068,0.055,12.1,0.006c0.87-0.012,1.105,0.229,1.105,1.098 	c-0.026,16.837-0.028,33.675,0,50.511c0.002,0.941-0.281,1.178-1.192,1.166c-3.561-0.051-7.126-0.037-10.69-0.004 	c-0.734,0.004-1.174-0.245-1.625-0.828c-6.852-8.856-13.734-17.696-20.607-26.536C131.517,321.557,131.191,321.162,130.626,320.451" 	/> <path d="M280.646,349.31c-5.563,0-10.807-0.021-16.058,0.017c-0.83,0.011-1.123-0.472-1.489-1.026 	c-3.071-4.645-6.175-9.273-9.214-13.935c-0.5-0.766-1.026-1.075-1.932-1.021c-1.356,0.077-2.719,0.077-4.075,0 	c-0.896-0.055-1.083,0.264-1.075,1.107c0.041,4.547-0.01,9.095,0.041,13.64c0.014,0.985-0.258,1.253-1.239,1.24 	c-4.126-0.055-8.252-0.044-12.376-0.006c-0.763,0.006-1.045-0.152-1.042-0.99c0.027-16.923,0.024-33.843,0.002-50.768 	c-0.002-0.793,0.218-1.013,1.013-1.01c8.767,0.04,17.533,0.006,26.297,0.081c3.058,0.03,6.054,0.635,8.892,1.805 	c8.086,3.332,11.331,10.232,10.39,18.702c-0.687,6.188-4.038,10.544-9.581,13.244c-0.92,0.447-0.975,0.756-0.409,1.576 	c3.676,5.308,7.306,10.652,10.948,15.986C279.993,348.328,280.244,348.707,280.646,349.31 M246.822,315.606c0,1.779,0,3.562,0,5.345 	c0,0.461-0.095,0.963,0.662,0.938c3.791-0.119,7.604,0.307,11.375-0.267c3.353-0.51,5.351-2.838,5.392-6.007 	c0.043-3.255-1.783-5.492-5.229-6.079c-3.854-0.662-7.762-0.162-11.645-0.291c-0.694-0.024-0.549,0.487-0.549,0.876 	C246.817,311.95,246.822,313.776,246.822,315.606"/> <path d="M332.508,323.057c-0.03-13.382,9.56-24.751,22.83-27.029c8.855-1.52,17.025,0.107,24.045,5.852 	c15.416,12.626,12.32,37.082-5.688,45.646c-11.773,5.598-26.068,2.898-34.499-6.588 	C334.679,335.857,332.592,329.818,332.508,323.057 M347.55,323.063c-0.051,0.925,0.061,2.045,0.324,3.142 	c1.177,4.933,3.939,8.617,8.831,10.242c4.838,1.604,9.36,0.735,13.205-2.721c5.193-4.673,5.924-13.638,1.65-19.525 	c-2.529-3.479-5.98-5.346-10.26-5.47C353.362,308.508,347.544,314.537,347.55,323.063"/> <path d="M222.081,303.206c-2.705,3.258-5.389,6.452-8.011,9.697c-0.609,0.76-0.954,0.331-1.424-0.044 	c-3.155-2.522-6.683-4.063-10.777-4.246c-6.121-0.274-11.168,2.928-13.439,8.631c-2.614,6.565-0.602,14.359,4.874,17.995 	c5.025,3.337,10.375,3.277,15.791,0.884c0.676-0.296,0.975-0.705,0.931-1.497c-0.075-1.449-0.081-2.909,0-4.358 	c0.055-0.917-0.287-1.073-1.112-1.063c-2.722,0.051-5.439-0.022-8.162,0.043c-0.952,0.021-1.172-0.299-1.155-1.193 	c0.054-2.812,0.051-5.628,0.002-8.441c-0.013-0.839,0.193-1.128,1.083-1.126c7.361,0.032,14.725,0.038,22.086-0.002 	c0.971-0.006,1.155,0.324,1.149,1.2c-0.03,7.224-0.024,14.443-0.008,21.664c0.002,0.621-0.157,1.061-0.668,1.432 	c-11.229,8.13-23.309,10.24-36.12,4.421c-10.127-4.6-15.653-15.408-14.714-26.522c1.27-15.021,14.198-26.699,31.749-25.06 	c6.225,0.586,11.839,2.623,16.723,6.571C221.277,302.514,221.66,302.851,222.081,303.206"/> <path d="M285.413,322.921c0-8.349,0.02-16.695-0.024-25.043c-0.008-1.028,0.215-1.33,1.295-1.33 	c13.271,0.043,26.544,0.038,39.817,0.006c0.982,0,1.395,0.138,1.365,1.274c-0.087,3.327-0.073,6.658-0.006,9.988 	c0.024,1.036-0.345,1.213-1.278,1.204c-8.395-0.032-16.789,0.014-25.185-0.052c-1.277-0.011-1.582,0.35-1.508,1.55 	c0.105,1.731,0.086,3.473,0.002,5.203c-0.049,0.996,0.261,1.249,1.239,1.243c7.506-0.041,15.011,0.008,22.516-0.057 	c1.256-0.011,1.576,0.314,1.53,1.553c-0.099,2.905-0.093,5.816,0,8.72c0.041,1.17-0.372,1.362-1.419,1.356 	c-7.459-0.043-14.915,0.003-22.371-0.049c-1.145-0.011-1.56,0.261-1.495,1.457c0.098,1.869,0.09,3.752,0.003,5.625 	c-0.052,1.042,0.228,1.323,1.299,1.317c8.488-0.048,16.978-0.002,25.468-0.053c1.183-0.012,1.59,0.197,1.547,1.492 	c-0.111,3.326-0.063,6.66-0.02,9.99c0.011,0.803-0.228,1.009-1.021,1.009c-13.553-0.024-27.108-0.03-40.66,0.006 	c-1.013,0.005-1.111-0.395-1.107-1.225C285.423,339.71,285.413,331.318,285.413,322.921"/> <path d="M111.405,349.31c-5.069,0-9.945-0.016-14.82,0.017c-0.727,0.002-0.938-0.366-1.164-0.934 	c-1-2.521-2.069-5.014-3.042-7.543c-0.284-0.732-0.647-0.955-1.426-0.949c-6.048,0.034-12.1,0.044-18.147-0.006 	c-0.94-0.011-1.285,0.364-1.584,1.156c-0.944,2.491-1.979,4.946-2.942,7.429c-0.208,0.529-0.422,0.849-1.078,0.845 	c-4.734-0.03-9.472-0.024-14.209-0.036c-0.08,0-0.162-0.071-0.342-0.157c1.532-3.651,3.057-7.308,4.597-10.956 	c5.7-13.521,11.424-27.035,17.086-40.572c0.472-1.131,1.037-1.506,2.256-1.478c3.796,0.089,7.596,0.054,11.394,0.016 	c0.753-0.006,1.183,0.19,1.489,0.922c7.213,17.143,14.445,34.28,21.669,51.417C111.23,348.69,111.283,348.919,111.405,349.31 	 M81.913,313.57c-2.048,5.178-3.945,9.969-5.89,14.892h8.921c2.776,0,2.779,0,1.787-2.551 	C85.177,321.919,83.616,317.935,81.913,313.57"/> <path d="M8.481,322.844c0-8.345,0.017-16.693-0.022-25.04c-0.005-0.95,0.181-1.27,1.206-1.256 	c4.079,0.065,8.16,0.065,12.238,0c1.02-0.014,1.217,0.304,1.214,1.262c-0.033,12.378,0.002,24.759-0.056,37.139 	c-0.008,1.349,0.414,1.583,1.643,1.577c7.5-0.057,15.005-0.006,22.506-0.055c1.097-0.008,1.42,0.264,1.395,1.385 	c-0.078,3.371-0.086,6.752,0,10.125c0.031,1.178-0.388,1.352-1.43,1.348c-12.476-0.032-24.947-0.034-37.422,0.006 	c-1.064,0.006-1.303-0.266-1.297-1.308C8.501,339.635,8.481,331.239,8.481,322.844"/> <path d="M258.265,383.98c1.563,2.029,3.126,4.059,4.688,6.088c1.541,2.003,3.079,4.011,4.681,6.094 	c-1.611,0.3-2.809,0.185-3.875-1.332c-2.338-3.334-4.936-6.482-7.383-9.74c-0.534-0.714-1.102-0.985-1.994-0.963 	c-2.39,0.064-4.784,0.07-7.169,0c-0.962-0.028-1.172,0.298-1.158,1.194c0.047,3.277-0.002,6.56,0.033,9.841 	c0.008,0.773-0.058,1.217-1.025,1.152c-0.798-0.055-1.238-0.07-1.232-1.115c0.049-9.046,0.024-18.089,0.036-27.135 	c0-0.459-0.234-1.118,0.642-1.091c4.914,0.151,9.857-0.456,14.736,0.322c5.552,0.888,8.608,5.676,7.005,10.672 	c-1.047,3.25-3.618,4.722-6.698,5.552c-0.313,0.087-0.641,0.13-0.958,0.208C258.512,383.75,258.449,383.836,258.265,383.98 	 M251.901,382.167v-0.016c1.594,0,3.191,0.093,4.773-0.017c3.009-0.217,5.769-1.059,7.193-4.049 	c1.909-4.021-0.636-8.215-5.381-8.863c-3.863-0.526-7.76-0.128-11.637-0.247c-0.787-0.021-0.782,0.45-0.782,0.998 	c0.009,3.745,0.03,7.492-0.014,11.233c-0.01,0.865,0.342,0.996,1.075,0.977C248.719,382.141,250.31,382.167,251.901,382.167"/> <path d="M96.283,381.473c0-4.405,0.047-8.807-0.03-13.214c-0.023-1.155,0.355-1.383,1.403-1.334 	c3.923,0.174,7.871-0.312,11.779,0.325c7.166,1.161,12.158,7.068,12.158,14.31c-0.002,7.242-4.99,13.203-12.116,14.37 	c-4.137,0.678-8.322,0.162-12.484,0.317c-1,0.041-0.7-0.659-0.703-1.144C96.277,390.563,96.283,386.018,96.283,381.473 	 M98.506,381.451c0,3.889-0.007,7.777,0.006,11.664c0.002,0.508-0.243,1.175,0.732,1.134c3.085-0.124,6.18,0.193,9.263-0.225 	c6.14-0.832,10.429-5.486,10.801-11.765c0.355-6.008-3.46-11.262-9.274-12.773c-3.411-0.891-6.899-0.375-10.349-0.554 	c-1.045-0.052-1.212,0.341-1.198,1.272C98.533,373.952,98.506,377.701,98.506,381.451"/> <path d="M152.284,381.457c0-4.452,0.023-8.906-0.019-13.355c-0.008-0.873,0.158-1.226,1.129-1.181 	c3.972,0.183,7.967-0.319,11.924,0.318c7.301,1.175,12.283,7.022,12.277,14.337c-0.002,7.294-5.04,13.229-12.271,14.369 	c-4.096,0.646-8.232,0.146-12.348,0.304c-0.875,0.033-0.689-0.542-0.689-1.02C152.282,390.638,152.284,386.048,152.284,381.457 	 M154.508,381.622c0,3.843-0.003,7.688,0.003,11.529c0,0.531-0.181,1.139,0.767,1.102c3.04-0.131,6.087,0.192,9.125-0.221 	c6.284-0.852,10.552-5.462,10.91-11.808c0.345-6.113-3.528-11.289-9.584-12.799c-3.327-0.83-6.718-0.316-10.075-0.488 	c-0.925-0.047-1.179,0.238-1.168,1.162C154.538,373.936,154.508,377.78,154.508,381.622"/> <path d="M120.977,396.162c4.061-8.796,8.054-17.446,12.049-26.099c0.334-0.722,0.681-1.436,0.989-2.167 	c0.297-0.717,0.57-1.271,1.577-1.232c0.91,0.036,1.26,0.398,1.61,1.161c4.207,9.176,8.454,18.336,12.689,27.501 	c0.114,0.251,0.206,0.517,0.314,0.782c-2.228,0.336-2.228,0.336-3.129-1.645c-0.809-1.79-1.664-3.56-2.402-5.377 	c-0.342-0.845-0.829-1.053-1.693-1.048c-4.923,0.044-9.846,0.052-14.77,0c-0.933-0.014-1.428,0.233-1.787,1.112 	c-0.738,1.818-1.594,3.587-2.4,5.373C123.203,396.351,123.203,396.351,120.977,396.162 M135.579,369.198 	c-2.522,5.529-4.932,10.825-7.357,16.117c-0.427,0.927,0.228,0.759,0.72,0.765c4.359,0,8.715-0.03,13.075,0.022 	c1.056,0.011,1.178-0.223,0.741-1.156c-1.546-3.3-3.022-6.632-4.528-9.947C137.383,373.138,136.53,371.276,135.579,369.198"/> <path d="M389.188,396.152c-1.7,0.431-2.637,0.004-3.195-1.632c-0.659-1.939-1.68-3.752-2.494-5.641 	c-0.261-0.607-0.599-0.819-1.265-0.813c-5.157,0.026-10.315,0.026-15.474,0c-0.672-0.006-0.979,0.228-1.236,0.836 	c-0.826,1.932-1.832,3.798-2.554,5.762c-0.548,1.498-1.397,1.96-2.908,1.492c0.038-0.626,0.434-1.154,0.694-1.725 	c4.081-8.872,8.169-17.745,12.258-26.617c0.275-0.597,0.47-1.213,1.365-1.096c0.635,0.084,1.232-0.082,1.604,0.732 	C380.356,377.009,384.763,386.552,389.188,396.152 M382.185,386.08c-2.579-5.682-5.075-11.171-7.658-16.865 	c-2.624,5.763-5.124,11.258-7.679,16.865H382.185z"/> <path d="M65.035,396.087c-1.812,0.626-2.643-0.119-3.215-1.693c-0.669-1.839-1.62-3.573-2.387-5.378 	c-0.292-0.678-0.625-0.985-1.434-0.977c-5.106,0.044-10.213,0.035-15.321,0.005c-0.716-0.002-1.061,0.223-1.339,0.891 	c-0.794,1.894-1.783,3.712-2.493,5.639c-0.557,1.524-1.432,2.037-3.044,1.54c1.734-3.753,3.47-7.515,5.207-11.281 	c2.644-5.722,5.297-11.445,7.917-17.178c0.31-0.681,0.641-1.045,1.442-0.963c0.612,0.06,1.124-0.006,1.459,0.729 	C56.202,376.969,60.611,386.504,65.035,396.087 M58.042,386.056c-2.573-5.668-5.065-11.154-7.662-16.876 	c-2.634,5.787-5.132,11.278-7.68,16.876H58.042z"/> <path d="M290.094,366.577c3.156,0.036,5.959,1.068,8.479,2.938c0.543,0.404,0.859,0.733,0.228,1.284 	c-0.441,0.385-0.564,1.334-1.571,0.53c-3.19-2.571-6.861-3.391-10.822-2.356c-3.311,0.864-4.931,3.656-4.136,6.726 	c0.396,1.536,1.493,2.437,2.83,3.109c2.027,1.026,4.241,1.433,6.428,1.935c1.693,0.386,3.346,0.888,4.876,1.718 	c4.677,2.539,5.209,8.813,0.974,12.071c-3.516,2.705-7.502,2.58-11.533,1.587c-2.445-0.607-4.54-1.929-6.496-3.512 	c-0.766-0.617-0.375-0.96,0.057-1.438c0.413-0.458,0.67-0.925,1.393-0.261c3.294,3.034,7.192,4.277,11.643,3.644 	c3.891-0.545,6.186-3.607,5.401-7.086c-0.342-1.506-1.321-2.429-2.613-3.113c-1.97-1.044-4.143-1.432-6.28-1.915 	c-1.739-0.387-3.438-0.889-5.039-1.69c-2.518-1.259-3.974-3.247-4.042-6.1c-0.065-2.862,1.216-5.033,3.63-6.552 	C285.52,366.821,287.77,366.51,290.094,366.577"/> <path d="M237.904,376.932c0-2.996,0.047-5.996-0.024-8.995c-0.026-1.05,0.534-0.937,1.221-0.979 	c0.787-0.052,1.031,0.192,1.026,1.001c-0.041,5.763,0.051,11.528-0.07,17.292c-0.122,5.676-3.324,9.854-8.401,11.086 	c-7.278,1.77-15.393-1.563-15.5-11.803c-0.057-5.48,0.002-10.967-0.022-16.448c-0.002-0.775,0.068-1.185,1.031-1.147 	c0.86,0.036,1.219,0.172,1.208,1.147c-0.049,5.063-0.03,10.127-0.017,15.184c0.003,1.263,0.017,2.519,0.279,3.775 	c1.09,5.152,4.854,8.05,10.115,7.719c5.535-0.342,8.877-3.696,9.09-9.258c0.107-2.852,0.019-5.714,0.019-8.573H237.904z"/> <path d="M34.615,391.647c-4.159,4.331-9.178,6.094-15.031,4.694c-5.951-1.427-9.552-5.438-10.758-11.353 	c-1.644-8.065,2.521-15.591,9.78-17.831c5.571-1.721,10.63-0.565,15.073,3.234c0.475,0.407,1.003,0.749,0.213,1.389 	c-0.552,0.45-0.828,1.14-1.756,0.302c-4.117-3.723-8.846-4.775-14.028-2.57c-5.426,2.312-8.252,8.434-7.088,14.912 	c1.037,5.764,5.731,10.018,11.529,10.338c3.527,0.195,6.612-0.999,9.274-3.321C33.248,390.198,33.265,390.215,34.615,391.647"/> <path d="M333.702,381.614c0.279-6.219,2.8-11.233,8.736-13.835c6.002-2.635,11.612-1.5,16.608,2.732 	c0.494,0.418,0.813,0.74,0.136,1.286c-0.54,0.429-0.796,1.223-1.745,0.347c-3.729-3.45-8.102-4.594-12.983-3.011 	c-5.519,1.785-8.79,7.209-8.397,13.625c0.434,7.041,6.108,12.318,12.985,12.047c3.39-0.13,6.26-1.524,8.626-3.88 	c0.86-0.857,1.188-0.25,1.747,0.23c0.784,0.67,0.041,0.963-0.298,1.291c-4.499,4.339-11.128,5.671-16.643,3.162 	C336.559,392.923,333.97,388.028,333.702,381.614"/> <path d="M202.667,382.667c0,4.173-0.019,8.341,0.016,12.514c0.006,0.798-0.107,1.166-1.047,1.14 	c-0.878-0.03-1.202-0.207-1.196-1.17c0.038-8.246-0.002-16.494,0.049-24.742c0.006-1.178-0.314-1.493-1.476-1.449 	c-2.573,0.093-5.155-0.002-7.729,0.043c-0.795,0.017-1.032-0.217-1.026-1.014c0.006-0.771,0.186-1.037,1.008-1.031 	c6.888,0.03,13.776,0.026,20.663,0c0.733-0.006,0.988,0.195,0.954,0.934c-0.026,0.668,0.004,1.14-0.93,1.117 	c-2.717-0.059-5.436,0.022-8.15-0.043c-0.953-0.021-1.164,0.293-1.153,1.193C202.692,374.326,202.667,378.499,202.667,382.667"/> <path d="M312.158,382.58c0-4.124-0.03-8.248,0.022-12.369c0.014-0.98-0.247-1.273-1.241-1.246 	c-2.669,0.067-5.341-0.016-8.012,0.037c-0.88,0.022-0.961-0.352-0.961-1.073c0.004-0.689,0.14-0.978,0.921-0.972 	c6.935,0.03,13.87,0.03,20.8-0.002c0.844-0.004,0.879,0.379,0.873,1.017c-0.005,0.619,0,1.051-0.857,1.03 	c-2.528-0.053-5.063,0.061-7.589-0.048c-1.351-0.055-1.804,0.217-1.786,1.71c0.091,8.104,0.024,16.211,0.065,24.315 	c0.006,1.007-0.171,1.405-1.28,1.341c-0.85-0.049-0.974-0.353-0.969-1.091C312.172,391.013,312.158,386.797,312.158,382.58"/> <path d="M67.034,381.535c0-4.502,0.023-9.005-0.02-13.503c-0.008-0.842,0.178-1.132,1.072-1.121 	c0.887,0.008,1.19,0.192,1.187,1.149c-0.042,8.254,0.003,16.506-0.056,24.76c-0.005,1.178,0.289,1.47,1.458,1.451 	c4.876-0.073,9.753-0.019,14.631-0.047c0.774-0.002,1.153,0.077,1.161,1.032c0.005,0.998-0.464,0.998-1.186,0.992 	c-5.678-0.016-11.351-0.032-17.025,0.011c-0.963,0.012-1.263-0.211-1.249-1.217C67.068,390.541,67.034,386.036,67.034,381.535"/> <path d="M271.596,381.592c0-4.451,0.019-8.899-0.017-13.352c-0.006-0.854,0.021-1.348,1.142-1.321 	c1.023,0.022,1.1,0.435,1.096,1.249c-0.023,8.993-0.028,17.987,0.012,26.98c0.003,0.943-0.279,1.128-1.17,1.172 	c-1.071,0.057-1.077-0.456-1.074-1.24C271.608,390.585,271.596,386.086,271.596,381.592"/> <path d="M327.597,381.489c0-4.446,0.017-8.892-0.016-13.338c-0.006-0.844,0.108-1.232,1.109-1.219 	c0.949,0.014,1.149,0.313,1.147,1.199c-0.032,8.988-0.03,17.976-0.002,26.964c0.002,0.866-0.152,1.227-1.132,1.227 	c-0.978,0.004-1.129-0.35-1.123-1.207C327.615,390.573,327.597,386.031,327.597,381.489"/> <path d="M89.776,381.473c0-4.455,0.021-8.91-0.016-13.365c-0.008-0.862,0.144-1.211,1.122-1.205 	c0.992,0,1.131,0.377,1.127,1.232c-0.024,8.953-0.03,17.913,0.007,26.867c0.002,0.96-0.223,1.245-1.223,1.286 	c-1.163,0.04-1.022-0.598-1.02-1.312C89.779,390.474,89.776,385.972,89.776,381.473"/> <path d="M278.329,360.57c-2.349,1.161-3.381,3.879-6.585,3.723c1.354-1.71,2.54-3.211,3.73-4.711 	c0.299-0.374,0.579-0.1,0.86,0.032C276.875,359.876,277.416,360.133,278.329,360.57"/> <path d="M196.894,3.097C125.327,4.125,67.084,62.496,67.036,135.255c0.145,73.155,59.258,132.185,132.174,131.968 	c73.229-0.218,131.976-59.725,131.433-133.222C330.109,60.907,270.26,2.042,196.894,3.097 M272.026,189.466 	c-9.011,12.893-20.686,22.335-36.108,26.394c-17.645,4.646-35.055,4.16-51.644-4.098c-18.71-9.306-30.158-24.462-34.814-44.795 	c-1.217-5.322-1.609-10.739-1.614-16.188c-0.011-10.691-0.027-21.386,0.028-32.079c0.006-1.325-0.397-1.614-1.656-1.608 	c-11.069,0.046-22.138,0.027-33.205,0.027h-1.867c3.09-4.121,5.954-7.938,8.822-11.753c4.958-6.596,9.929-13.181,14.863-19.793 	c0.528-0.708,1.06-1.024,1.973-1.008c3.187,0.063,6.38-0.023,9.567,0.058c1.175,0.03,1.501-0.317,1.494-1.489 	c-0.041-11.726-0.027-23.449-0.022-35.175c0.003-1.994-0.292-1.83,1.773-1.833c11.117-0.008,22.233,0.019,33.346-0.034 	c1.32-0.006,1.731,0.264,1.723,1.665c-0.061,11.771-0.012,23.544-0.071,35.316c-0.005,1.256,0.323,1.547,1.532,1.542 	c11.303-0.059,22.604-0.042,33.908-0.095c1.131-0.005,1.413,0.358,1.41,1.442c-0.038,9.896-0.046,19.791-0.006,29.687 	c0.006,1.167-0.317,1.498-1.487,1.495c-11.254-0.045-22.511-0.012-33.768-0.056c-1.197-0.005-1.592,0.242-1.587,1.53 	c0.059,11.397-0.104,22.797,0.084,34.191c0.154,9.362,3.103,17.787,9.785,24.591c6.89,7.022,15.42,9.394,25.044,8.474 	c10.21-0.974,17.965-6.24,24.4-13.84c1.818-2.146,3.57-4.328,6.074-5.779c6.654-3.869,15.064-2.68,20.34,2.949 	C275.491,174.695,276.335,183.304,272.026,189.466"/>
	</symbol>
	<symbol id="warning" viewBox="0 0 193 193">
			<path d="M108.186,144.372c0,7.054-4.729,12.32-12.037,12.32h-0.254c-7.054,0-11.92-5.266-11.92-12.32 c0-7.298,5.012-12.31,12.174-12.31C103.311,132.062,108.059,137.054,108.186,144.372z M88.44,125.301h15.447l2.951-61.298H85.46 L88.44,125.301z M190.372,177.034c-2.237,3.664-6.214,5.921-10.493,5.921H12.282c-4.426,0-8.51-2.384-10.698-6.233 c-2.159-3.849-2.11-8.549,0.147-12.349l84.111-149.22c2.208-3.722,6.204-5.96,10.522-5.96h0.332 c4.445,0.107,8.441,2.618,10.513,6.546l83.515,149.229C192.717,168.768,192.629,173.331,190.372,177.034z M179.879,170.634 L96.354,21.454L12.292,170.634H179.879z"/>
	</symbol>
</svg>